<?xml version="1.0" encoding="utf-8"?>
<!-- Generator: Adobe Illustrator 23.0.1, SVG Export Plug-In . SVG Version: 6.00 Build 0)  -->
<svg version="1.1" id="Camada_1" xmlns="http://www.w3.org/2000/svg" xmlns:xlink="http://www.w3.org/1999/xlink" x="0px" y="0px"
	 viewBox="0 0 471.7 471.7" style="enable-background:new 0 0 471.7 471.7;" xml:space="preserve">
<style type="text/css">
	.st0{fill:#FFFFFF;}
</style>
<g>
	<path class="st0" d="M130.4,88.5c18.9,0,36.6,7.4,50.1,20.8l13.1,13.1c11.7,11.7,27.1,17.6,42.4,17.6s30.7-5.9,42.4-17.6l12.9-12.9
		c13.4-13.4,31.1-20.7,50-20.7c19.1,0,36.4,7.1,49.9,20.6c13.3,13.3,20.6,31,20.5,49.8c0,0.1,0,0.1,0,0.2c0,18.9-7.4,36.6-20.7,50
		L235.8,364l-155-155C67.2,195.3,60,178.1,60,159.1c0-0.1,0-0.1,0-0.2c-0.1-18.8,7.3-36.4,20.6-49.8
		C93.9,95.8,111.6,88.5,130.4,88.5 M130.4,28.5c-34.8,0-67.6,13.6-92.2,38.2C13.5,91.4-0.1,124.2,0,159.1
		c0,34.9,13.7,67.6,38.4,92.3l187.8,187.8c2.6,2.6,6.1,4,9.5,4c3.4,0,6.9-1.3,9.5-3.9l188.2-187.5c24.7-24.7,38.3-57.5,38.3-92.4
		c0.1-34.9-13.4-67.7-38.1-92.4c-24.7-24.7-57.4-38.2-92.3-38.2s-67.7,13.6-92.4,38.3L236,80l-13.1-13.1
		C198.2,42.2,165.3,28.5,130.4,28.5L130.4,28.5z"/>
</g>
</svg>
